<svg xmlns="http://www.w3.org/2000/svg" version="1.1" xmlns:xlink="http://www.w3.org/1999/xlink" xmlns:svgjs="http://svgjs.com/svgjs" width="0.0666693in" height="0.0666693in"><svg xmlns="http://www.w3.org/2000/svg" xml:space="preserve" width="0.0666693in" height="0.0666693in" version="1.1" style="shape-rendering:geometricPrecision; text-rendering:geometricPrecision; image-rendering:optimizeQuality; fill-rule:evenodd; clip-rule:evenodd" viewBox="0 0 1.99 1.99" xmlns:xlink="http://www.w3.org/1999/xlink" xmlns:xodm="http://www.corel.com/coreldraw/odm/2003">
 <defs>
  <style type="text/css">
   
    .fil3 {fill:#E97D38}
    .fil2 {fill:#EBBA33}
    .fil0 {fill:#2393C9}
    .fil1 {fill:#010929}
   
  </style>
 </defs>
 <g id="SvgjsG1002">
  <metadata id="SvgjsMetadata1001"></metadata>
  <g id="SvgjsG1000">
   <rect class="fil0" x="0" y="0" width="1.99" height="1.99" rx="0.7" ry="1"></rect>
   <rect class="fil1" x="0.08" y="0.08" width="1.82" height="1.82" rx="0.64" ry="0.91"></rect>
   <g>
    <path class="fil2" d="M1.78 1.4l-1.57 -0.65 0.01 -0.16 1.56 0.81zm-0 0l0 0 -1.57 -0.47 0.01 -0.13 1.56 0.6zm-0 0l0 0 -1.58 -0.28 0.04 -0.13 1.54 0.41z"></path>
    <path class="fil3" d="M1.07 0.32c0.02,0 0.04,0.01 0.06,0.01l0 -0c0.01,0 0.01,-0 0.02,-0.01 0.01,-0.02 0.02,-0.05 0.03,-0.06 0,-0.01 0,-0.01 0.01,-0.01 0.01,0 0.03,0.01 0.03,0.01 0,0 0.01,0 0.01,0.01 0,0.01 -0,0.08 -0,0.08 0,0 0,0.01 0.01,0.02l0 0 -0 0c0.02,0.01 0.04,0.02 0.06,0.03l0 -0c0.01,0 0.01,0 0.02,-0.01 0.01,-0.02 0.04,-0.05 0.04,-0.05 0.01,-0.01 0.01,-0.01 0.01,-0.01 0.01,0 0.03,0.01 0.03,0.01 0,0 0.01,0 0,0.01 -0,0.01 -0.02,0.07 -0.02,0.07 0,0 -0,0.01 0.01,0.02l0 0 -0 0c0.02,0.01 0.03,0.03 0.05,0.04l0 -0c0.01,0 0.01,0.01 0.02,-0 0.02,-0.01 0.05,-0.04 0.05,-0.04 0.01,-0 0.01,-0.01 0.01,-0 0,0 0.02,0.02 0.02,0.02 0,0 0,0 0,0.01 -0,0.01 -0.04,0.07 -0.04,0.07 0,0 -0,0.01 0,0.02l0 0 -0 0c0.01,0.02 0.03,0.03 0.04,0.05 0,0 0.01,0.01 0.02,0 0.02,-0.01 0.05,-0.02 0.06,-0.03 0.01,-0 0.01,-0 0.01,0 0,0.01 0.02,0.02 0.02,0.02 0,0 0,0 -0,0.01 -0,0.01 -0.06,0.05 -0.06,0.05 0,0 -0.01,0.01 -0,0.02l0 0 -0 0c0.01,0.02 0.02,0.04 0.03,0.06 0,0 0.01,0.01 0.02,0 0.02,-0 0.06,-0.01 0.06,-0.01 0.01,-0 0.01,-0 0.01,0 0,0.01 0.01,0.03 0.01,0.03 0,0 0,0.01 -0,0.01 -0.01,0 -0.07,0.04 -0.07,0.04 0,0 -0.01,0.01 -0.01,0.02l0 0 0 0 -0 0c0,0.02 0.01,0.05 0.01,0.07 0,0 0.01,0.01 0.02,0.01 0.02,0 0.06,0 0.07,0.01 0.01,0 0.01,0 0.01,0.01 0,0.01 0,0.03 0,0.03 0,0 0,0.01 -0,0.01 -0.01,0 -0.08,0.02 -0.08,0.02 0,0 -0.01,0 -0.01,0.01l0 0 -0 0 0 0 -0.03 0 0 -0 -0.12 0 -0.19 0 -0.87 0c0.01,0.28 0.24,0.51 0.53,0.51 0.21,0 0.4,-0.12 0.48,-0.3l0.13 0.07c-0,0 -0,0.01 -0,0.01l0 0c-0,0.01 -0,0.01 0.01,0.02 0.02,0.01 0.05,0.03 0.05,0.04 0.01,0.01 0.01,0.01 0.01,0.01 -0,0.01 -0.01,0.03 -0.01,0.03 -0,0 -0,0.01 -0.01,0 -0.01,-0 -0.07,-0.02 -0.07,-0.02 0,0 -0.01,-0 -0.02,0.01l-0 0 -0.01 -0c-0.01,0.01 -0.02,0.03 -0.03,0.04 0,0 0,0.01 0.01,0.01 0.01,0.01 0.04,0.04 0.04,0.05 0,0.01 0.01,0.01 0,0.01 -0,0 -0.02,0.02 -0.02,0.02 -0,0 -0,0 -0.01,0 -0.01,-0 -0.07,-0.04 -0.07,-0.04 0,0 -0.01,-0 -0.01,-0 -0.02,0.02 -0.04,0.04 -0.07,0.06 -0,0 0,0.01 0,0.01 0.01,0.02 0.03,0.05 0.03,0.06 0,0.01 0,0.01 -0,0.01 -0,0 -0.02,0.02 -0.02,0.02 -0,0 -0,0 -0.01,-0 -0.01,-0 -0.06,-0.05 -0.06,-0.05 0,0 -0,-0 -0.01,-0 -0.03,0.01 -0.05,0.03 -0.08,0.04 -0,0 -0,0.01 -0,0.01 0,0.02 0.01,0.06 0.01,0.06 0,0.01 0,0.01 -0,0.01 -0.01,0 -0.03,0.01 -0.03,0.01 -0,0 -0.01,0 -0.01,-0 -0,-0.01 -0.04,-0.07 -0.04,-0.07 0,0 -0,-0 -0.01,-0.01 -0.03,0.01 -0.06,0.01 -0.09,0.02 -0,0 -0,0.01 -0,0.01 -0,0.02 -0,0.06 -0,0.07 -0,0.01 -0,0.01 -0.01,0.01 -0.01,0 -0.03,0 -0.03,0 -0,0 -0.01,0 -0.01,-0 -0,-0.01 -0.02,-0.07 -0.02,-0.07 0,0 -0,-0 -0.01,-0.01l-0 0c-0.03,0 -0.06,-0 -0.09,-0.01 -0,0 -0,0.01 -0.01,0.01 -0.01,0.02 -0.02,0.06 -0.02,0.06 -0,0.01 -0,0.01 -0.01,0.01 -0.01,-0 -0.03,-0 -0.03,-0 -0,0 -0.01,-0 -0.01,-0.01 -0,-0.01 -0,-0.08 -0,-0.08 0,0 -0,-0.01 -0.01,-0.01 -0.03,-0.01 -0.06,-0.02 -0.08,-0.03 -0,0 -0.01,0 -0.01,0.01 -0.01,0.02 -0.03,0.05 -0.03,0.06 -0,0.01 -0.01,0.01 -0.01,0.01 -0.01,-0 -0.03,-0.01 -0.03,-0.01 -0,-0 -0.01,-0 -0.01,-0.01 0,-0.01 0.02,-0.08 0.02,-0.08 0,0 0,-0.01 -0,-0.01 -0.03,-0.01 -0.05,-0.03 -0.07,-0.05 -0,0 -0.01,0 -0.01,0.01 -0.01,0.01 -0.04,0.04 -0.05,0.04 -0.01,0 -0.01,0.01 -0.01,0 -0,-0 -0.02,-0.02 -0.02,-0.02 -0,-0 -0.01,-0 -0,-0.01 0,-0.01 0.03,-0.07 0.03,-0.07 0,0 0,-0.01 -0,-0.01 -0.02,-0.02 -0.04,-0.04 -0.06,-0.06 -0,-0 -0.01,-0 -0.01,0 -0.02,0.01 -0.05,0.03 -0.06,0.03 -0.01,0 -0.01,0.01 -0.01,0 -0,-0 -0.02,-0.02 -0.02,-0.02 -0,-0 -0,-0 -0,-0.01 0,-0.01 0.05,-0.06 0.05,-0.06 0,0 0,-0.01 0,-0.01 -0.01,-0.02 -0.03,-0.05 -0.04,-0.07 -0,-0 -0.01,-0 -0.02,-0 -0.02,0.01 -0.06,0.02 -0.06,0.02 -0.01,0 -0.01,0 -0.01,-0 -0,-0.01 -0.01,-0.03 -0.01,-0.03 -0,-0 -0,-0.01 0,-0.01 0,-0 0.06,-0.04 0.06,-0.04 0,0 0.01,-0.01 0.01,-0.02 -0.01,-0.02 -0.01,-0.05 -0.02,-0.08 -0,-0 -0.01,-0.01 -0.02,-0.01 -0.02,0 -0.06,0 -0.07,0 -0.01,-0 -0.01,0 -0.01,-0.01 -0,-0.01 -0.01,-0.03 -0.01,-0.03 -0,-0 -0,-0.01 0,-0.01 0.01,-0 0.07,-0.03 0.07,-0.03 0,0 0.01,-0.01 0.01,-0.02l-0 -0 0 -0c-0,-0.01 -0,-0.02 -0,-0.04 0,-0.01 0,-0.02 0,-0.03 -0,-0.01 -0.01,-0.01 -0.02,-0.01 -0.02,-0 -0.06,-0.01 -0.06,-0.02 -0.01,-0 -0.01,-0 -0.01,-0.01 0,-0.01 0,-0.03 0,-0.03 -0,-0 -0,-0.01 0.01,-0.01 0.01,-0 0.08,-0.01 0.08,-0.01 0,0 0.01,-0 0.01,-0.01l0 -0 0 0c0,-0.02 0.01,-0.04 0.02,-0.06 0,-0.01 -0,-0.01 -0.01,-0.02 -0.02,-0.01 -0.05,-0.03 -0.06,-0.03 -0.01,-0 -0.01,-0.01 -0.01,-0.01 0,-0.01 0.01,-0.03 0.01,-0.03 0,-0 0,-0.01 0.01,-0.01 0.01,0 0.08,0.01 0.08,0.01 0,0 0.01,-0 0.02,-0.01l0 -0 0 0c0.01,-0.02 0.02,-0.04 0.03,-0.06l-0 -0c0,-0.01 0,-0.01 -0.01,-0.02 -0.01,-0.01 -0.04,-0.04 -0.05,-0.04 -0,-0.01 -0.01,-0.01 -0.01,-0.01 0,-0.01 0.02,-0.02 0.02,-0.03 0,-0 0,-0.01 0.01,-0 0.01,0 0.07,0.03 0.07,0.03 0,0 0.01,0 0.02,-0.01l0 -0 0 0c0.01,-0.02 0.03,-0.03 0.04,-0.05l-0 -0c0,-0 0.01,-0.01 -0,-0.02 -0.01,-0.02 -0.03,-0.05 -0.04,-0.05 -0,-0.01 -0.01,-0.01 -0,-0.01 0,-0 0.02,-0.02 0.02,-0.02 0,-0 0,-0 0.01,-0 0.01,0 0.06,0.05 0.06,0.05 0,0 0.01,0.01 0.02,-0l0 -0 0 0c0.02,-0.01 0.04,-0.02 0.05,-0.04l-0 -0c0.01,-0 0.01,-0.01 0.01,-0.02 -0.01,-0.02 -0.02,-0.05 -0.02,-0.06 -0,-0.01 -0,-0.01 0,-0.01 0.01,-0 0.02,-0.01 0.03,-0.01 0,-0 0,-0 0.01,0 0,0 0.05,0.06 0.05,0.06 0,0 0.01,0.01 0.02,0l0 -0 0 0c0.02,-0.01 0.04,-0.02 0.06,-0.02l-0 -0c0.01,-0 0.01,-0.01 0.01,-0.02 -0,-0.02 -0.01,-0.06 -0.01,-0.07 0,-0.01 -0,-0.01 0.01,-0.01 0.01,-0 0.03,-0.01 0.03,-0.01 0,-0 0.01,-0 0.01,0 0,0.01 0.03,0.07 0.03,0.07 0,0 0.01,0.01 0.02,0.01l0 -0 0 0c0.02,-0 0.04,-0 0.06,-0.01l-0 -0c0.01,-0 0.01,-0 0.02,-0.02 0,-0.02 0.01,-0.06 0.01,-0.06 0,-0.01 0,-0.01 0.01,-0.01 0.01,-0 0.03,-0 0.03,-0 0,-0 0.01,-0 0.01,0.01 0,0.01 0.01,0.08 0.01,0.08 0,0 0.01,0.01 0.02,0.01l0 0 0 0zm-0.59 0.55l0 0 1.03 0c-0.06,-0.23 -0.27,-0.41 -0.52,-0.41 -0.25,0 -0.46,0.17 -0.52,0.41z"></path>
   </g>
  </g>
 </g>
</svg><style>@media (prefers-color-scheme: light) { :root { filter: none; } }
</style></svg>